<svg width="108" height="22" viewBox="0 0 108 22" fill="none" xmlns="http://www.w3.org/2000/svg">
<path d="M16.8458 15.95C16.8458 16.775 16.6587 17.5083 16.2843 18.15C15.9099 18.8833 15.3484 19.4333 14.6933 19.9833C14.0382 20.5333 13.1959 20.9917 12.26 21.2667C11.3242 21.5417 10.2946 21.725 9.1716 21.725C8.1421 21.725 7.2063 21.6333 6.4576 21.5417C5.6153 21.45 4.8666 21.2667 4.1179 21.0833C3.3692 20.9 2.714 20.5333 2.0589 20.2583C1.4038 19.8917 0.7487 19.4333 0 18.975L3.2756 16.1333C4.2115 16.8667 5.1473 17.325 6.0832 17.6C7.0191 17.875 7.955 18.0583 8.9844 18.0583C9.4524 18.0583 9.8267 17.9667 10.2011 17.875C10.5754 17.7833 10.9498 17.6 11.2305 17.4167C11.5113 17.2333 11.6984 16.9583 11.8857 16.775C12.0728 16.5 12.1665 16.225 12.1665 15.95C12.1665 15.5833 12.0728 15.3083 11.9792 15.0333C11.8857 14.7583 11.6049 14.4833 11.2305 14.3C10.8562 14.025 10.3882 13.8417 9.7331 13.5667C9.078 13.2917 8.3293 13.0167 7.2999 12.7417C6.4576 12.4667 5.6153 12.1917 4.773 11.825C3.9307 11.4583 3.2756 11 2.714 10.5417C2.1525 10.0833 1.591 9.4417 1.3102 8.8C0.8423 7.975 0.6551 7.15 0.6551 6.2333C0.6551 5.3167 0.8423 4.4917 1.2166 3.7583C1.591 3.025 2.1525 2.3833 2.9012 1.83333C3.5563 1.375 4.3986 0.91667 5.3345 0.64167C6.2704 0.36667 7.2999 0.18333 8.3293 0.18333C10.1075 0.18333 11.6984 0.36667 12.9151 0.825C14.1318 1.28333 15.2548 1.83333 16.1907 2.6583L13.0087 5.5C12.4472 5.0417 11.7921 4.5833 11.0434 4.3083C10.2946 4.0333 9.4524 3.9417 8.5165 3.9417C8.0485 3.9417 7.6742 4.0333 7.2999 4.125C6.8319 4.2167 6.5512 4.4 6.2704 4.5833C5.9896 4.7667 5.8024 5.0417 5.6153 5.3167C5.4281 5.5917 5.3345 5.8667 5.3345 6.1417C5.3345 6.5083 5.4281 6.7833 5.6153 7.0583C5.7089 7.3333 5.9896 7.5167 6.364 7.7917C6.7383 8.0667 7.2063 8.25 7.8614 8.525C8.5165 8.8 9.2652 9.075 10.2011 9.35C11.4177 9.7167 12.3536 10.0833 13.1959 10.5417C14.0382 11 14.6933 11.4583 15.2548 12.0083C15.8164 12.5583 16.1907 13.1083 16.4714 13.75C16.7522 14.3917 16.8458 15.125 16.8458 15.95ZM43.144 21.45H38.5582V12.2833H30.0417V21.45H25.4559V0.64167H30.0417V8.8917H38.5582V0.64167H43.144V21.45ZM68.5063 21.45H51.7541V0.64167H68.5063V3.9417H56.2463V8.8917H67.5704V12.1H56.2463V17.7833H68.5063V21.45ZM82.0766 21.45H77.4907V0.64167H82.0766V21.45ZM108 0.64167V22L95.179 11.0917V21.2667H90.687V0L103.508 10.9083V0.64167H108Z" fill="white"/>
</svg>
